<mxfile host="app.diagrams.net" modified="2023-06-09T02:17:54.137Z" agent="Mozilla/5.0 (Windows NT 10.0; Win64; x64) AppleWebKit/537.36 (KHTML, like Gecko) Chrome/114.0.0.0 Safari/537.36 Edg/114.0.1823.41" version="21.3.8" etag="SSPL65BRZZ1kDArEeNyt" type="github">
  <diagram name="第 1 页" id="RcuNdlHDXZPaqMJl9dOt">
    <mxGraphModel>
      <root>
        <mxCell id="0" />
        <mxCell id="1" parent="0" />
      </root>
    </mxGraphModel>
  </diagram>
</mxfile>
